<svg width="23" height="24" viewBox="0 0 23 24" fill="none" xmlns="http://www.w3.org/2000/svg">
<path d="M22.0977 19.5859C21.5207 18.2387 20.6835 17.015 19.6325 15.9829C18.5848 14.9479 17.3436 14.1226 15.9776 13.5528C15.9654 13.5467 15.9532 13.5437 15.9409 13.5377C17.8464 12.1809 19.0851 9.97085 19.0851 7.47739C19.0851 3.34673 15.6901 0 11.5 0C7.30987 0 3.91494 3.34673 3.91494 7.47739C3.91494 9.97085 5.15363 12.1809 7.05907 13.5407C7.04684 13.5467 7.0346 13.5497 7.02237 13.5558C5.65217 14.1256 4.42265 14.9427 3.36747 15.9859C2.31752 17.0188 1.4804 18.2423 0.902331 19.5889C0.334437 20.9073 0.0281593 22.3207 7.64806e-05 23.7528C-0.000739846 23.7849 0.00498573 23.817 0.016916 23.8469C0.0288463 23.8769 0.0467398 23.9042 0.0695421 23.9272C0.0923445 23.9503 0.119594 23.9686 0.149686 23.9811C0.179778 23.9936 0.212103 24 0.244756 24H2.07985C2.21442 24 2.32147 23.8945 2.32453 23.7648C2.3857 21.4372 3.33383 19.2573 5.00988 17.605C6.74405 15.8955 9.04709 14.9548 11.5 14.9548C13.9529 14.9548 16.256 15.8955 17.9901 17.605C19.6662 19.2573 20.6143 21.4372 20.6755 23.7648C20.6785 23.8975 20.7856 24 20.9202 24H22.7552C22.7879 24 22.8202 23.9936 22.8503 23.9811C22.8804 23.9686 22.9077 23.9503 22.9305 23.9272C22.9533 23.9042 22.9712 23.8769 22.9831 23.8469C22.995 23.817 23.0007 23.7849 22.9999 23.7528C22.9693 22.3116 22.6665 20.9095 22.0977 19.5859ZM11.5 12.6633C10.0962 12.6633 8.77489 12.1236 7.78088 11.1437C6.78687 10.1638 6.2394 8.86131 6.2394 7.47739C6.2394 6.09347 6.78687 4.79095 7.78088 3.81106C8.77489 2.83116 10.0962 2.29146 11.5 2.29146C12.9038 2.29146 14.2251 2.83116 15.2191 3.81106C16.2131 4.79095 16.7606 6.09347 16.7606 7.47739C16.7606 8.86131 16.2131 10.1638 15.2191 11.1437C14.2251 12.1236 12.9038 12.6633 11.5 12.6633Z" fill="#3987D0"/>
</svg>
