<svg width="26" height="27" viewBox="0 0 26 27" fill="none" xmlns="http://www.w3.org/2000/svg">
<path d="M8.59737 25.9968C7.96308 25.993 7.3472 25.7832 6.84259 25.3988L4.15192 23.3971C3.531 22.913 3.11901 22.2095 3.00056 21.4311C2.88211 20.6527 3.06619 19.8585 3.515 19.2116C3.75247 18.861 3.90338 18.459 3.95535 18.0387C4.00732 17.6184 3.95887 17.1918 3.81396 16.7939L3.73597 16.5859C3.63508 16.2258 3.45067 15.8945 3.19772 15.6189C2.94477 15.3434 2.63041 15.1314 2.28016 15.0001H2.07218C1.31291 14.7448 0.685008 14.2003 0.324822 13.4848C-0.0353638 12.7693 -0.0987521 11.9406 0.148422 11.1786L1.21429 7.79903C1.31241 7.40746 1.49305 7.04139 1.74412 6.7253C1.9952 6.40922 2.3109 6.15043 2.67011 5.96625C3.00462 5.7939 3.37063 5.69121 3.74598 5.6644C4.12133 5.63759 4.49822 5.68721 4.85383 5.81027C5.24103 5.94059 5.6542 5.97436 6.05743 5.90867C6.46065 5.84297 6.84173 5.6798 7.16755 5.43332L7.33652 5.30334C7.63145 5.06801 7.86981 4.7695 8.03403 4.4298C8.19826 4.09011 8.28416 3.71789 8.28541 3.34058V3.02862C8.28191 2.23329 8.59275 1.46878 9.15025 0.901545C9.70775 0.334308 10.4668 0.0102769 11.262 0H14.5766C14.9636 0.00104272 15.3465 0.0785157 15.7034 0.22797C16.0603 0.377423 16.3841 0.595913 16.6564 0.870891C17.2287 1.45295 17.5466 2.23835 17.5402 3.05462V3.41857C17.5337 3.777 17.6114 4.13197 17.7672 4.45484C17.923 4.77771 18.1525 5.05945 18.4371 5.27734L18.5801 5.38133C18.8719 5.60009 19.2122 5.74508 19.572 5.80392C19.9319 5.86277 20.3006 5.83373 20.6469 5.71929L21.0888 5.5763C21.4632 5.45218 21.8588 5.40475 22.252 5.43683C22.6452 5.4689 23.0279 5.57984 23.3772 5.76301C23.7266 5.94619 24.0355 6.19785 24.2855 6.50299C24.5355 6.80812 24.7215 7.16049 24.8323 7.53906L25.8592 10.8146C26.0968 11.5717 26.0319 12.3913 25.678 13.1014C25.3241 13.8116 24.7089 14.357 23.9614 14.6232L23.7015 14.7142C23.3191 14.8394 22.9734 15.0566 22.6946 15.3467C22.4158 15.6368 22.2126 15.9909 22.1027 16.378C21.9992 16.7378 21.9747 17.1157 22.0308 17.4858C22.0869 17.856 22.2222 18.2097 22.4276 18.5227L22.7656 19.0166C23.2138 19.6671 23.3961 20.4644 23.2753 21.2451C23.1545 22.0257 22.7396 22.7306 22.1157 23.2151L19.503 25.2298C19.1874 25.4712 18.8256 25.6455 18.4401 25.7418C18.0546 25.8381 17.6535 25.8545 17.2614 25.79C16.8693 25.7255 16.4945 25.5814 16.1602 25.3665C15.8259 25.1517 15.5392 24.8708 15.3175 24.5409L15.1615 24.32C14.9487 24 14.6582 23.7392 14.3172 23.5619C13.9763 23.3847 13.596 23.2966 13.2118 23.3061C12.8452 23.3156 12.486 23.4111 12.1631 23.585C11.8402 23.7588 11.5627 24.0061 11.353 24.307L11.0541 24.7359C10.8324 25.068 10.545 25.3513 10.2097 25.5681C9.87434 25.785 9.49816 25.9308 9.1043 25.9968C8.93573 26.0133 8.76594 26.0133 8.59737 25.9968ZM3.12505 12.5044C3.85906 12.7662 4.52137 13.1966 5.05869 13.761C5.59601 14.3254 5.99332 15.008 6.21866 15.754V15.91C6.49934 16.6855 6.5915 17.5167 6.48754 18.3349C6.38357 19.153 6.08646 19.9347 5.62074 20.6154C5.53853 20.7062 5.49301 20.8244 5.49301 20.9469C5.49301 21.0694 5.53853 21.1875 5.62074 21.2783L8.41539 23.3971C8.45185 23.4257 8.49402 23.4462 8.53906 23.4572C8.5841 23.4682 8.63097 23.4694 8.67653 23.4608C8.72208 23.4522 8.76527 23.4339 8.80318 23.4072C8.84109 23.3806 8.87285 23.3461 8.89633 23.3061L9.19529 22.8771C9.64619 22.2256 10.2483 21.6932 10.9501 21.3254C11.6519 20.9576 12.4325 20.7655 13.2248 20.7655C14.0171 20.7655 14.7976 20.9576 15.4994 21.3254C16.2012 21.6932 16.8034 22.2256 17.2543 22.8771L17.4103 23.1111C17.4661 23.1904 17.5496 23.246 17.6442 23.2671C17.6877 23.2735 17.7319 23.271 17.7744 23.2599C17.8168 23.2487 17.8566 23.2291 17.8912 23.2021L20.5689 21.1744C20.6626 21.1 20.7243 20.9925 20.7412 20.874C20.7581 20.7555 20.729 20.6351 20.6599 20.5374L20.3219 20.0435C19.8815 19.4014 19.591 18.6686 19.4718 17.8991C19.3525 17.1297 19.4076 16.3433 19.633 15.5981C19.8614 14.8147 20.2746 14.0977 20.8379 13.5074C21.4011 12.917 22.0979 12.4705 22.8696 12.2055L23.1296 12.1145C23.2379 12.0711 23.3247 11.9866 23.3709 11.8794C23.4172 11.7723 23.4192 11.6512 23.3765 11.5426L22.3626 8.30596C22.3383 8.24933 22.3027 8.19824 22.258 8.15578C22.2133 8.11333 22.1605 8.0804 22.1027 8.05899C22.0644 8.03958 22.0221 8.02946 21.9792 8.02946C21.9363 8.02946 21.894 8.03958 21.8557 8.05899L21.4138 8.20198C20.6662 8.44871 19.8698 8.5102 19.0932 8.38114C18.3166 8.25208 17.5829 7.93634 16.9553 7.46107L16.9033 7.34408C16.3011 6.888 15.8128 6.29851 15.4767 5.62191C15.1407 4.94531 14.9661 4.20002 14.9666 3.44457V3.04162C14.9689 2.91634 14.9223 2.79508 14.8366 2.70366C14.7618 2.63608 14.6644 2.59898 14.5636 2.59968H11.262C11.2091 2.60298 11.1573 2.61671 11.1097 2.64008C11.062 2.66345 11.0195 2.69599 10.9845 2.73585C10.9494 2.7757 10.9226 2.82208 10.9056 2.87232C10.8885 2.92257 10.8816 2.97568 10.8851 3.02862V3.35358C10.8852 4.12963 10.7071 4.89535 10.3645 5.59171C10.022 6.28807 9.52412 6.89649 8.90933 7.37008L8.74035 7.50006C8.07708 8.00506 7.29977 8.33915 6.47694 8.47289C5.6541 8.60663 4.811 8.53591 4.02194 8.26697C3.9629 8.24715 3.899 8.24715 3.83996 8.26697C3.7666 8.31153 3.71136 8.38059 3.68398 8.46194L2.60512 11.8545C2.56751 11.9701 2.57632 12.0957 2.62969 12.2049C2.68306 12.314 2.7768 12.3982 2.89108 12.4394L3.12505 12.5044Z" fill="#3987D0"/>
<path d="M13.0038 17.5481C12.104 17.5481 11.2244 17.2813 10.4763 16.7814C9.7281 16.2815 9.14499 15.5709 8.80065 14.7396C8.45632 13.9083 8.36622 12.9936 8.54176 12.1111C8.7173 11.2286 9.1506 10.418 9.78685 9.78172C10.4231 9.14547 11.2337 8.71218 12.1162 8.53664C12.9987 8.3611 13.9135 8.45119 14.7448 8.79553C15.5761 9.13986 16.2866 9.72297 16.7865 10.4711C17.2864 11.2193 17.5532 12.0989 17.5532 12.9987C17.5532 14.2052 17.0739 15.3624 16.2207 16.2156C15.3675 17.0688 14.2104 17.5481 13.0038 17.5481ZM13.0038 11.0489C12.6182 11.0489 12.2412 11.1632 11.9206 11.3775C11.5999 11.5917 11.35 11.8962 11.2024 12.2525C11.0549 12.6088 11.0163 13.0008 11.0915 13.379C11.1667 13.7572 11.3524 14.1047 11.6251 14.3773C11.8978 14.65 12.2452 14.8357 12.6234 14.9109C13.0016 14.9862 13.3936 14.9476 13.7499 14.8C14.1062 14.6524 14.4107 14.4025 14.6249 14.0819C14.8392 13.7612 14.9535 13.3843 14.9535 12.9987C14.9535 12.4815 14.7481 11.9856 14.3825 11.62C14.0168 11.2543 13.5209 11.0489 13.0038 11.0489Z" fill="#3987D0"/>
</svg>
