<svg width="22" height="21" viewBox="0 0 22 21" fill="none" xmlns="http://www.w3.org/2000/svg">
<g clip-path="url(#clip0)">
<path d="M11.0671 10.5C10.6876 10.5 10.3796 10.206 10.3796 9.84375V9.1875H3.96289V9.84375C3.96289 10.206 3.65489 10.5 3.27539 10.5C2.89589 10.5 2.58789 10.206 2.58789 9.84375V8.53125C2.58789 8.169 2.89589 7.875 3.27539 7.875H11.0671C11.4466 7.875 11.7546 8.169 11.7546 8.53125V9.84375C11.7546 10.206 11.4466 10.5 11.0671 10.5Z" fill="#9CB9D5"/>
<path d="M7.1582 16.4062C6.7787 16.4062 6.4707 16.1122 6.4707 15.75V8.75C6.4707 8.38775 6.7787 8.09375 7.1582 8.09375C7.5377 8.09375 7.8457 8.38775 7.8457 8.75V15.75C7.8457 16.1122 7.5377 16.4062 7.1582 16.4062Z" fill="#9CB9D5"/>
<path d="M8.15592 16.625H5.86426C5.48476 16.625 5.17676 16.331 5.17676 15.9687C5.17676 15.6065 5.48476 15.3125 5.86426 15.3125H8.15592C8.53542 15.3125 8.84342 15.6065 8.84342 15.9687C8.84342 16.331 8.53542 16.625 8.15592 16.625Z" fill="#9CB9D5"/>
<path d="M18.5625 9.1875H14.4375C14.058 9.1875 13.75 8.8935 13.75 8.53125C13.75 8.169 14.058 7.875 14.4375 7.875H18.5625C18.942 7.875 19.25 8.169 19.25 8.53125C19.25 8.8935 18.942 9.1875 18.5625 9.1875Z" fill="#9CB9D5"/>
<path d="M18.5625 12.6875H14.4375C14.058 12.6875 13.75 12.3935 13.75 12.0312C13.75 11.669 14.058 11.375 14.4375 11.375H18.5625C18.942 11.375 19.25 11.669 19.25 12.0312C19.25 12.3935 18.942 12.6875 18.5625 12.6875Z" fill="#9CB9D5"/>
<path d="M18.5625 16.1875H14.4375C14.058 16.1875 13.75 15.8935 13.75 15.5312C13.75 15.169 14.058 14.875 14.4375 14.875H18.5625C18.942 14.875 19.25 15.169 19.25 15.5312C19.25 15.8935 18.942 16.1875 18.5625 16.1875Z" fill="#9CB9D5"/>
<path d="M19.4792 20.125H2.52083C1.13025 20.125 0 19.0461 0 17.7187V3.28125C0 1.95387 1.13025 0.875 2.52083 0.875H19.4792C20.8698 0.875 22 1.95387 22 3.28125V17.7187C22 19.0461 20.8698 20.125 19.4792 20.125ZM2.52083 2.1875C1.88925 2.1875 1.375 2.67837 1.375 3.28125V17.7187C1.375 18.3216 1.88925 18.8125 2.52083 18.8125H19.4792C20.1108 18.8125 20.625 18.3216 20.625 17.7187V3.28125C20.625 2.67837 20.1108 2.1875 19.4792 2.1875H2.52083Z" fill="#9CB9D5"/>
<path d="M21.3125 5.25H0.6875C0.308 5.25 0 4.956 0 4.59375C0 4.2315 0.308 3.9375 0.6875 3.9375H21.3125C21.692 3.9375 22 4.2315 22 4.59375C22 4.956 21.692 5.25 21.3125 5.25Z" fill="#9CB9D5"/>
</g>
<defs>
<clipPath id="clip0">
<rect width="22" height="21" fill="white"/>
</clipPath>
</defs>
</svg>
