<svg width="22" height="21" viewBox="0 0 22 21" fill="none" xmlns="http://www.w3.org/2000/svg">
<g clip-path="url(#clip0)">
<path d="M8.31706 8.75H3.27539C2.89589 8.75 2.58789 8.456 2.58789 8.09375C2.58789 7.7315 2.89589 7.4375 3.27539 7.4375H8.31706C8.69656 7.4375 9.00456 7.7315 9.00456 8.09375C9.00456 8.456 8.69656 8.75 8.31706 8.75Z" fill="#9CB9D5"/>
<path d="M8.31706 11.375H3.27539C2.89589 11.375 2.58789 11.081 2.58789 10.7188C2.58789 10.3565 2.89589 10.0625 3.27539 10.0625H8.31706C8.69656 10.0625 9.00456 10.3565 9.00456 10.7188C9.00456 11.081 8.69656 11.375 8.31706 11.375Z" fill="#9CB9D5"/>
<path d="M8.31706 14H3.27539C2.89589 14 2.58789 13.706 2.58789 13.3438C2.58789 12.9815 2.89589 12.6875 3.27539 12.6875H8.31706C8.69656 12.6875 9.00456 12.9815 9.00456 13.3438C9.00456 13.706 8.69656 14 8.31706 14Z" fill="#9CB9D5"/>
<path d="M8.31706 16.625H3.27539C2.89589 16.625 2.58789 16.331 2.58789 15.9687C2.58789 15.6065 2.89589 15.3125 3.27539 15.3125H8.31706C8.69656 15.3125 9.00456 15.6065 9.00456 15.9687C9.00456 16.331 8.69656 16.625 8.31706 16.625Z" fill="#9CB9D5"/>
<path d="M19.4792 20.125H2.52083C1.13025 20.125 0 19.0461 0 17.7187V3.28125C0 1.95387 1.13025 0.875 2.52083 0.875H19.4792C20.8698 0.875 22 1.95387 22 3.28125V17.7187C22 19.0461 20.8698 20.125 19.4792 20.125ZM2.52083 2.1875C1.88925 2.1875 1.375 2.67837 1.375 3.28125V17.7187C1.375 18.3216 1.88925 18.8125 2.52083 18.8125H19.4792C20.1108 18.8125 20.625 18.3216 20.625 17.7187V3.28125C20.625 2.67837 20.1108 2.1875 19.4792 2.1875H2.52083Z" fill="#9CB9D5"/>
<path d="M21.3125 5.25H0.6875C0.308 5.25 0 4.956 0 4.59375C0 4.2315 0.308 3.9375 0.6875 3.9375H21.3125C21.692 3.9375 22 4.2315 22 4.59375C22 4.956 21.692 5.25 21.3125 5.25Z" fill="#9CB9D5"/>
<path d="M11.6873 15.8813C11.5113 15.8813 11.3353 15.8174 11.2014 15.6888C10.9329 15.4324 10.9329 15.0168 11.2014 14.7604L12.6131 13.4129C13.241 12.8144 14.2604 12.8161 14.8864 13.4129C14.9369 13.4619 15.0854 13.5704 15.2302 13.3971L15.7069 12.8284C16.31 12.0943 17.6016 12.089 18.2139 12.8336L19.0985 13.8871C19.3359 14.1698 19.2892 14.5828 18.9922 14.8094C18.6961 15.0378 18.2634 14.9914 18.026 14.7079L17.1369 13.6491C17.014 13.5004 16.8976 13.5056 16.7849 13.6439L16.3036 14.2179C15.7334 14.8978 14.5601 14.9573 13.9148 14.3421C13.8249 14.2573 13.6746 14.2573 13.5848 14.3421L12.1731 15.6896C12.0393 15.8174 11.8633 15.8813 11.6873 15.8813Z" fill="#9CB9D5"/>
<path d="M17.6458 17.5H12.6042C11.7196 17.5 11 16.8131 11 15.9687V8.53125C11 7.68687 11.7196 7 12.6042 7H17.6458C18.5304 7 19.25 7.68687 19.25 8.53125V15.9687C19.25 16.8131 18.5304 17.5 17.6458 17.5ZM12.6042 8.3125C12.4777 8.3125 12.375 8.4105 12.375 8.53125V15.9687C12.375 16.0895 12.4777 16.1875 12.6042 16.1875H17.6458C17.7723 16.1875 17.875 16.0895 17.875 15.9687V8.53125C17.875 8.4105 17.7723 8.3125 17.6458 8.3125H12.6042Z" fill="#9CB9D5"/>
</g>
<defs>
<clipPath id="clip0">
<rect width="22" height="21" fill="white"/>
</clipPath>
</defs>
</svg>
