<svg width="22" height="21" viewBox="0 0 22 21" fill="none" xmlns="http://www.w3.org/2000/svg">
<path d="M19.6367 0.369141C18.4832 0.369141 17.5207 1.16226 17.3147 2.20709C13.0043 3.95575 6.25685 3.97852 6.1875 3.97852H3.22266C1.44568 3.97852 0 5.35849 0 7.05469V10.0078C0 11.704 1.44568 13.084 3.22266 13.084H5.6659L6.80479 18.1823C7.11468 19.6011 8.44151 20.6309 9.95973 20.6309C11.0633 20.6309 11.8823 19.6622 11.658 18.6367L11.192 16.5016C12.459 16.1064 13.4531 15.1346 13.8365 13.9158C15.0452 14.1268 16.2222 14.4149 17.3149 14.8562C17.5212 15.9006 18.4835 16.6934 19.6367 16.6934C20.9398 16.6934 22 15.6814 22 14.4375V2.625C22 1.38112 20.9398 0.369141 19.6367 0.369141ZM13.4551 12.6064C12.743 12.4791 9.09214 12.0358 6.83203 11.8896V5.19889C8.58838 5.15357 13.5275 4.90506 17.2734 3.54875V13.5171C16.0501 13.0835 14.7478 12.8077 13.4551 12.6064ZM1.28906 10.0078V7.05469C1.28906 6.03697 2.15647 5.20898 3.22266 5.20898H5.54297V11.8535H3.22266C2.15647 11.8535 1.28906 11.0255 1.28906 10.0078ZM9.95973 19.4004C9.04879 19.4004 8.25262 18.7825 8.06614 17.9284L6.99514 13.134C7.70593 13.1834 8.45023 13.2487 9.18225 13.326L10.3962 18.8879C10.454 19.1525 10.2429 19.4004 9.95973 19.4004ZM10.9267 15.2859L10.5316 13.4753C11.2013 13.5496 11.876 13.6263 12.547 13.7176C12.2694 14.436 11.6761 15.0109 10.9267 15.2859ZM20.7109 14.4375C20.7109 15.0029 20.229 15.4629 19.6367 15.4629C19.0444 15.4629 18.5625 15.0029 18.5625 14.4375V2.625C18.5625 2.0596 19.0444 1.59961 19.6367 1.59961C20.229 1.59961 20.7109 2.0596 20.7109 2.625V14.4375Z" fill="#9CB9D5"/>
</svg>
