<svg width="23" height="23" viewBox="0 0 23 23" fill="none" xmlns="http://www.w3.org/2000/svg">
<path d="M20.5293 3.59375H19.8555V2.02148C19.8555 0.906838 18.9486 0 17.834 0C16.7193 0 15.8125 0.906838 15.8125 2.02148V2.57335C15.8125 3.27162 15.3436 3.89329 14.6722 4.08511L14.0156 4.2727V4.26758C14.0156 3.89545 13.7139 3.59375 13.3418 3.59375H10.6465C10.2744 3.59375 9.97266 3.89545 9.97266 4.26758V7.27734H2.02148C0.906838 7.27734 0 8.18418 0 9.29883V22.3262C0 22.5747 0.136787 22.803 0.355871 22.9203C0.455508 22.9736 0.564758 23 0.673783 23C0.804506 23 0.934869 22.962 1.04758 22.8868L3.57318 21.2031H16.3965C17.5111 21.2031 18.418 20.2963 18.418 19.1816V12.1289H20.5293C21.8916 12.1289 23 11.0205 23 9.6582V6.06445C23 4.70211 21.8916 3.59375 20.5293 3.59375ZM11.3203 4.94141H12.668V10.7812H11.3203V4.94141ZM17.0703 19.1816C17.0703 19.5532 16.768 19.8555 16.3965 19.8555H3.36914C3.23613 19.8555 3.10608 19.8949 2.99539 19.9687L1.34766 21.0671V9.29883C1.34766 8.92728 1.64994 8.625 2.02148 8.625H9.97266V11.4551C9.97266 11.8272 10.2744 12.1289 10.6465 12.1289H13.3418C13.688 12.1289 13.9729 11.8677 14.011 11.5318C14.6112 11.9146 15.3171 12.1289 16.0511 12.1289H17.0703V19.1816ZM21.6523 9.6582C21.6523 10.2775 21.1485 10.7812 20.5293 10.7812H16.0511C15.2318 10.7812 14.4666 10.3679 14.0156 9.69207V5.67431L15.0424 5.38097C16.2893 5.02469 17.1602 3.87015 17.1602 2.57335V2.02148C17.1602 1.64994 17.4624 1.34766 17.834 1.34766C18.2055 1.34766 18.5078 1.64994 18.5078 2.02148V4.26758C18.5078 4.63971 18.8095 4.94141 19.1816 4.94141H20.5293C21.1485 4.94141 21.6523 5.44521 21.6523 6.06445V9.6582Z" fill="#9CB9D5"/>
<path d="M3.36914 12.668H7.86133C8.23346 12.668 8.53516 12.3663 8.53516 11.9941C8.53516 11.622 8.23346 11.3203 7.86133 11.3203H3.36914C2.99701 11.3203 2.69531 11.622 2.69531 11.9941C2.69531 12.3663 2.99701 12.668 3.36914 12.668Z" fill="#9CB9D5"/>
<path d="M15.0488 14.0156H3.36914C2.99701 14.0156 2.69531 14.3173 2.69531 14.6895C2.69531 15.0616 2.99701 15.3633 3.36914 15.3633H15.0488C15.421 15.3633 15.7227 15.0616 15.7227 14.6895C15.7227 14.3173 15.421 14.0156 15.0488 14.0156Z" fill="#9CB9D5"/>
<path d="M15.0488 16.7109H3.36914C2.99701 16.7109 2.69531 17.0126 2.69531 17.3848C2.69531 17.7569 2.99701 18.0586 3.36914 18.0586H15.0488C15.421 18.0586 15.7227 17.7569 15.7227 17.3848C15.7227 17.0126 15.421 16.7109 15.0488 16.7109Z" fill="#9CB9D5"/>
</svg>
