<svg width="24" height="24" viewBox="0 0 24 24" fill="none" xmlns="http://www.w3.org/2000/svg">
<path d="M22.5172 1.40625H22.5671C22.9555 1.40625 23.2703 1.09144 23.2703 0.703125C23.2703 0.314812 22.9555 0 22.5671 0H6.37502C4.94912 0 3.78906 1.16006 3.78906 2.586V21.4141C3.78906 22.84 4.94912 24 6.37502 24H20.6843C22.1102 24 23.2703 22.84 23.2703 21.4141V6.35156C23.2703 5.64131 22.9824 4.99716 22.5172 4.52934V1.40625H22.5172ZM6.37502 1.40625H21.1109V3.80156C20.972 3.77841 20.8297 3.7657 20.6843 3.7657H6.37502C5.72453 3.7657 5.19531 3.23648 5.19531 2.586C5.19531 1.93547 5.72453 1.40625 6.37502 1.40625ZM21.8641 21.4141C21.8641 22.0646 21.3348 22.5938 20.6843 22.5938H6.37502C5.72453 22.5938 5.19531 22.0646 5.19531 21.4141V4.88686C5.54922 5.06906 5.95028 5.17195 6.37502 5.17195H20.6843C20.9381 5.17195 21.1732 5.25277 21.3658 5.38959C21.3821 5.40309 21.3991 5.41575 21.4165 5.4277C21.6889 5.64394 21.8641 5.97759 21.8641 6.35156V21.4141Z" fill="#9CB9D5"/>
<path d="M17.7731 12.2571L15.2768 11.8944L14.1604 9.63228C14.0419 9.39228 13.7975 9.24036 13.5298 9.24036C13.2622 9.24036 13.0178 9.39228 12.8993 9.63228L11.783 11.8944L9.28663 12.2571C9.02178 12.2955 8.80171 12.4811 8.71902 12.7356C8.63628 12.9902 8.70528 13.2696 8.89691 13.4564L10.7033 15.2172L10.2768 17.7034C10.2316 17.9672 10.34 18.2338 10.5565 18.3911C10.7731 18.5485 11.0601 18.5692 11.297 18.4446L13.5298 17.2707L15.7626 18.4447C15.8655 18.4987 15.9778 18.5254 16.0898 18.5254H16.0917C16.4796 18.5249 16.7939 18.2103 16.7939 17.8223C16.7939 17.7684 16.7878 17.7157 16.7763 17.6652L16.3564 15.2172L18.1628 13.4564C18.3545 13.2696 18.4234 12.9902 18.3407 12.7356C18.258 12.4811 18.0379 12.2956 17.7731 12.2571ZM15.1101 14.4683C14.9444 14.6298 14.8688 14.8625 14.9079 15.0906L15.1559 16.5369L13.857 15.854C13.6521 15.7463 13.4074 15.7463 13.2026 15.854L11.9036 16.5369L12.1517 15.0906C12.1908 14.8625 12.1152 14.6298 11.9495 14.4683L10.8986 13.4439L12.3509 13.2328C12.5799 13.1996 12.7779 13.0557 12.8803 12.8482L13.5298 11.5322L14.1793 12.8482C14.2817 13.0557 14.4797 13.1996 14.7087 13.2328L16.161 13.4439L15.1101 14.4683Z" fill="#9CB9D5"/>
</svg>
