<svg width="20" height="20" viewBox="0 0 20 20" fill="none" xmlns="http://www.w3.org/2000/svg">
<g clip-path="url(#clip0)">
<path d="M16.2142 9.77243C18.264 7.92971 18.4319 4.77424 16.5892 2.72448C14.8991 0.844504 12.0702 0.525128 10.0036 1.98101C7.75063 0.391032 4.63539 0.92846 3.04541 3.18134C1.58648 5.24856 1.90455 8.08034 3.78574 9.77239C1.44832 11.0045 -0.0105314 13.4337 5.72536e-05 16.0759V18.2188C5.72536e-05 18.6133 0.319852 18.9331 0.714353 18.9331H19.2857C19.6802 18.9331 20 18.6133 20 18.2188V16.0759C20.0105 13.4337 18.5517 11.0045 16.2142 9.77243ZM12.8571 2.50458C14.8268 2.50241 16.4253 4.09736 16.4275 6.06702C16.429 7.47176 15.6059 8.74654 14.3249 9.3231C14.2699 9.34809 14.215 9.37094 14.1592 9.39455C13.983 9.46565 13.8012 9.52224 13.6157 9.56384C13.58 9.57171 13.5442 9.57598 13.5078 9.58313C13.3006 9.62285 13.0903 9.64411 12.8792 9.64671C12.7842 9.64671 12.6885 9.63955 12.5935 9.63101C12.5578 9.63101 12.5221 9.63101 12.4864 9.62386C12.0804 9.57606 11.6855 9.45967 11.3185 9.27958C11.305 9.27313 11.2892 9.27384 11.2757 9.26815C11.2042 9.23387 11.1328 9.20387 11.0692 9.16528C11.075 9.15812 11.0785 9.1503 11.0842 9.14314C11.4118 8.72227 11.67 8.25185 11.8492 7.74958L11.8713 7.68956C11.9528 7.44966 12.0161 7.20399 12.0606 6.95455C12.0671 6.91814 12.0721 6.8831 12.0778 6.84385C12.1191 6.58993 12.1408 6.33325 12.1428 6.07598C12.1407 5.81921 12.119 5.56299 12.0778 5.30954C12.0721 5.27241 12.0671 5.23809 12.0606 5.19884C12.0161 4.94944 11.9528 4.70372 11.8713 4.46382L11.8492 4.40381C11.67 3.90153 11.4117 3.43111 11.0842 3.01024C11.0785 3.00309 11.0749 2.99526 11.0692 2.9881C11.6119 2.67153 12.2288 2.50462 12.8571 2.50458ZM3.57145 6.07602C3.56639 4.1087 5.15708 2.50977 7.12439 2.50471C8.04657 2.50232 8.93376 2.85769 9.5993 3.49603C9.64073 3.53604 9.68145 3.57601 9.72142 3.61744C9.84409 3.74597 9.95722 3.88324 10.06 4.02814C10.0914 4.07242 10.12 4.11959 10.1493 4.16529C10.2491 4.31893 10.3367 4.48014 10.4114 4.64743C10.4293 4.68815 10.4428 4.72959 10.4585 4.77027C10.5338 4.9553 10.5931 5.14648 10.6357 5.34168C10.6407 5.36311 10.6421 5.38453 10.6464 5.40667C10.7369 5.85019 10.7369 6.30742 10.6464 6.75093C10.6421 6.77307 10.6407 6.7945 10.6357 6.81593C10.5931 7.01113 10.5339 7.20231 10.4585 7.38734C10.4428 7.42807 10.4292 7.4695 10.4114 7.51018C10.3367 7.67721 10.249 7.83818 10.1493 7.99161C10.12 8.03731 10.0914 8.08448 10.06 8.12876C9.95726 8.2737 9.84409 8.41093 9.72142 8.53946C9.68141 8.58089 9.64069 8.6209 9.5993 8.66087C9.3101 8.93647 8.97666 9.16151 8.61288 9.32658C8.55504 9.35299 8.49644 9.3773 8.43718 9.39802C8.265 9.46636 8.08784 9.52128 7.9072 9.56229C7.86221 9.57229 7.81576 9.57798 7.77005 9.58585C7.57611 9.62197 7.37944 9.64177 7.18219 9.64516H7.10364C6.90638 9.64181 6.70972 9.62197 6.51578 9.58585C6.47007 9.57798 6.42362 9.57229 6.37863 9.56229C6.19799 9.52128 6.02079 9.46636 5.84865 9.39802C5.78934 9.37446 5.73079 9.35018 5.67295 9.32658C4.39503 8.7496 3.57309 7.47812 3.57145 6.07602ZM12.8571 17.5045H1.42861V16.076C1.41814 13.6555 2.94316 11.4945 5.22714 10.6931C6.45325 11.2036 7.83241 11.2036 9.05856 10.6931C9.29704 10.7803 9.52945 10.8831 9.75428 11.001C9.90285 11.0774 10.04 11.1646 10.1828 11.2524C10.2757 11.3103 10.37 11.3667 10.4593 11.4303C10.5971 11.5281 10.7271 11.6346 10.855 11.7439C10.9372 11.8153 11.0186 11.8867 11.0957 11.9581C11.2135 12.0695 11.3242 12.1874 11.4307 12.3081C11.5071 12.3953 11.5814 12.4838 11.6521 12.5753C11.7457 12.6953 11.835 12.8182 11.9178 12.9446C11.9893 13.0517 12.0529 13.1631 12.1157 13.2746C12.1871 13.3974 12.2528 13.5203 12.3128 13.6481C12.3728 13.776 12.4257 13.916 12.4771 14.0524C12.5221 14.171 12.5699 14.2889 12.6071 14.4096C12.6571 14.5753 12.6921 14.7467 12.7271 14.9181C12.7485 15.0195 12.7764 15.1188 12.7921 15.2217C12.8344 15.5045 12.8561 15.79 12.8571 16.076V17.5045H12.8571ZM18.5714 17.5045H14.2857V16.076C14.2857 15.8524 14.2728 15.6309 14.2528 15.4117C14.2471 15.3474 14.2371 15.2838 14.23 15.2195C14.2107 15.0617 14.1885 14.9053 14.1585 14.7502C14.1457 14.6841 14.1321 14.6176 14.1178 14.5509C14.0835 14.3919 14.0438 14.2343 13.9985 14.0781C13.9836 14.0267 13.97 13.9745 13.9543 13.9238C13.7542 13.2844 13.4644 12.6767 13.0936 12.1188L13.0657 12.0781C12.9428 11.8957 12.8116 11.7193 12.6721 11.5489L12.6671 11.5424C12.5243 11.3653 12.3693 11.1931 12.2064 11.0303C12.2157 11.0303 12.2257 11.0303 12.2357 11.0303C12.4373 11.0568 12.6403 11.0711 12.8436 11.0731H12.8829C13.071 11.0715 13.2589 11.0593 13.4457 11.0367C13.5043 11.0296 13.5622 11.0188 13.6207 11.0095C13.7727 10.9862 13.9227 10.956 14.0707 10.9189C14.1129 10.9081 14.1557 10.8981 14.1986 10.886C14.3929 10.8331 14.5838 10.7682 14.77 10.6917C17.0557 11.4922 18.5821 13.6542 18.5714 16.076V17.5045H18.5714Z" fill="#9CB9D5"/>
</g>
<defs>
<clipPath id="clip0">
<rect width="20" height="20" fill="white"/>
</clipPath>
</defs>
</svg>
