<svg width="20" height="20" viewBox="0 0 20 20" fill="none" xmlns="http://www.w3.org/2000/svg">
<path d="M15.536 1.67328C13.434 0.276157 10.9106 -0.272036 8.42206 0.127019C8.37874 0.127839 8.33542 0.132019 8.2921 0.139519C5.66114 0.596033 3.36509 2.04983 1.82633 4.23256C0.289249 6.41615 -0.306443 9.06708 0.149291 11.6989C0.225109 12.133 0.330889 12.5703 0.464206 12.9952C1.0149 14.7839 0.879081 16.7009 0.0826512 18.3929C-0.0564867 18.6862 -0.0106673 19.0344 0.198469 19.2835C0.407567 19.5326 0.739162 19.6359 1.05572 19.5509L4.79053 18.5312C6.37179 19.4993 8.1571 20 9.97996 20C10.6423 20 11.3096 19.9342 11.9736 19.8C14.5921 19.2727 16.8481 17.7581 18.326 15.5345C21.3777 10.9441 20.1264 4.72662 15.536 1.67328ZM16.9389 14.6123C15.7068 16.466 13.8264 17.7281 11.6454 18.1672C9.46595 18.6062 7.24321 18.1697 5.38872 16.9367C5.25044 16.8451 5.08962 16.7976 4.92717 16.7976C4.85385 16.7976 4.77971 16.8076 4.70721 16.8276L2.16456 17.5215C2.59362 15.8836 2.56194 14.1491 2.05543 12.5004C1.94297 12.1413 1.85383 11.7756 1.79133 11.414C1.41141 9.22126 1.90797 7.01185 3.18927 5.19231C4.44893 3.40364 6.31925 2.20311 8.4662 1.80238C8.5062 1.8007 8.54534 1.79656 8.58534 1.78988C10.6923 1.42582 12.8333 1.8782 14.6146 3.06204C18.4402 5.60555 19.4824 10.7867 16.9389 14.6123Z" fill="#9CB9D5"/>
<path d="M10.003 4.91821C9.54233 4.91821 9.16992 5.29063 9.16992 5.75132V10.75C9.16992 11.2107 9.54233 11.5831 10.003 11.5831C10.4637 11.5831 10.8361 11.2098 10.8361 10.75V5.75132C10.8361 5.29063 10.4638 4.91821 10.003 4.91821Z" fill="#9CB9D5"/>
<path d="M10.7686 13.8484C10.727 13.7401 10.6687 13.6484 10.5937 13.5735C10.552 13.5401 10.5104 13.4985 10.4604 13.4735C10.4188 13.4402 10.3688 13.416 10.3188 13.3985C10.2688 13.3727 10.2188 13.3569 10.1605 13.3485C9.89471 13.2902 9.6023 13.3826 9.41152 13.5735C9.33652 13.6484 9.27824 13.7401 9.23656 13.8484C9.19492 13.9483 9.16992 14.0566 9.16992 14.165C9.16992 14.2733 9.19492 14.3816 9.23656 14.4816C9.2782 14.5815 9.33652 14.6732 9.41152 14.7565C9.49484 14.8314 9.58648 14.8898 9.68644 14.9314C9.78639 14.9731 9.89471 14.9981 10.003 14.9981C10.1113 14.9981 10.2188 14.9731 10.3188 14.9314C10.4187 14.8898 10.5095 14.8315 10.5937 14.7565C10.6687 14.6732 10.727 14.5815 10.7686 14.4816C10.8103 14.3816 10.8353 14.2733 10.8353 14.165C10.8353 14.0566 10.8103 13.9483 10.7686 13.8484Z" fill="#00498D"/>
</svg>
