<svg width="43" height="44" viewBox="0 0 43 44" fill="none" xmlns="http://www.w3.org/2000/svg">
<path d="M5.375 7.33325V1.83325H8.95833V7.33325H14.3333V10.9999H8.95833V16.4999H5.375V10.9999H0V7.33325H5.375ZM10.75 18.3333V12.8333H16.125V7.33325H28.6667L31.9454 10.9999H37.625C39.5958 10.9999 41.2083 12.6499 41.2083 14.6666V36.6666C41.2083 38.6833 39.5958 40.3333 37.625 40.3333H8.95833C6.9875 40.3333 5.375 38.6833 5.375 36.6666V18.3333H10.75ZM23.2917 34.8333C28.2367 34.8333 32.25 30.7266 32.25 25.6666C32.25 20.6066 28.2367 16.4999 23.2917 16.4999C18.3467 16.4999 14.3333 20.6066 14.3333 25.6666C14.3333 30.7266 18.3467 34.8333 23.2917 34.8333ZM17.5583 25.6666C17.5583 28.9116 20.1204 31.5333 23.2917 31.5333C26.4629 31.5333 29.025 28.9116 29.025 25.6666C29.025 22.4216 26.4629 19.7999 23.2917 19.7999C20.1204 19.7999 17.5583 22.4216 17.5583 25.6666Z" fill="#B4B4B4"/>
</svg>
