<svg width="65" height="59" viewBox="0 0 65 59" fill="none" xmlns="http://www.w3.org/2000/svg">
<path d="M63.9636 47.1941L39.1189 4.16187C37.7374 1.76906 35.263 0.340332 32.4997 0.340332C29.7366 0.340332 27.262 1.76906 25.8805 4.16187L1.03598 47.1939C-0.345651 49.587 -0.345651 52.4442 1.03598 54.8371C2.41761 57.2301 4.89192 58.6587 7.65517 58.6587H57.3443C60.1074 58.6587 62.5818 57.23 63.9636 54.8373C65.3452 52.4442 65.3452 49.587 63.9636 47.1941ZM60.6656 52.9332C59.9723 54.134 58.7307 54.8507 57.3443 54.8507H7.65517C6.26859 54.8507 5.027 54.134 4.33383 52.9332C3.64067 51.7325 3.64067 50.299 4.33383 49.0982L29.1786 6.06603C29.8718 4.86531 31.1134 4.14854 32.4999 4.14854C33.8862 4.14854 35.1279 4.86531 35.8211 6.06603L60.6657 49.0982C61.3588 50.299 61.3588 51.7325 60.6656 52.9332Z" fill="#FF6060" fill-opacity="0.6"/>
</svg>
