<svg width="102" height="102" viewBox="0 0 102 102" fill="none" xmlns="http://www.w3.org/2000/svg">
<circle cx="51" cy="51" r="51" fill="white"/>
<circle cx="50.5" cy="51.5" r="45.5" fill="#CBE5F2"/>
<g clip-path="url(#clip0)">
<path d="M81.1985 86.8447L80.9559 87.1358C72.9674 96.7206 62.3267 102.002 51 102.002C39.6715 102.002 29.0325 96.7223 21.0424 87.1358L20.8014 86.8447L20.8583 86.4715C22.4011 76.4081 27.6587 68.3243 35.6622 63.7042L36.2312 63.3762L36.6846 63.8514C40.4647 67.8172 45.5483 69.9993 50.9983 69.9993C56.4483 69.9993 61.5319 67.8156 65.3119 63.8514L65.7654 63.3762L66.3343 63.7042C74.3379 68.3243 79.5955 76.4081 81.14 86.4715L81.1985 86.8447ZM51 65.9582C60.9128 65.9582 68.9782 57.8927 68.9782 47.9799C68.9782 38.0671 60.9128 30 51 30C41.0872 30 33.0217 38.0671 33.0217 47.9782C33.0217 57.8894 41.0872 65.9582 51 65.9582Z" fill="white"/>
</g>
<defs>
<clipPath id="clip0">
<rect width="72" height="72" fill="white" transform="translate(15 30)"/>
</clipPath>
</defs>
</svg>
