<svg width="21" height="21" viewBox="0 0 21 21" fill="none" xmlns="http://www.w3.org/2000/svg">
<path d="M19.429 0.942383H12.3532C11.3952 0.942383 10.543 1.40438 10.0077 2.11719C9.47231 1.40438 8.62021 0.942383 7.66213 0.942383H0.586388C0.262545 0.942383 0 1.20493 0 1.52877V17.9476C0 18.2715 0.262545 18.534 0.586388 18.534H14.7793L15.2114 19.7211C15.3721 20.1627 15.6952 20.5152 16.1211 20.7138C16.3576 20.8241 16.6101 20.8796 16.8635 20.8796C17.0663 20.8796 17.2699 20.844 17.4662 20.7726C18.3723 20.4427 18.8434 19.4413 18.523 18.534H19.429C19.7528 18.534 20.0154 18.2715 20.0154 17.9476V1.52877C20.0154 1.20493 19.7528 0.942383 19.429 0.942383ZM12.3532 2.11516H18.8426V15.0157H17.243L16.7175 13.572C17.8934 12.4272 18.3601 10.6555 17.7634 9.016C17.7634 9.016 17.7634 9.016 17.7634 9.01596C17.3705 7.93666 16.5808 7.0749 15.5398 6.58945C14.4987 6.10404 13.3311 6.0531 12.2518 6.4459C11.6116 6.67889 11.048 7.05148 10.5941 7.53326V3.87432C10.5941 2.90432 11.3832 2.11516 12.3532 2.11516ZM10.5941 13.4401C10.9623 13.8299 11.4045 14.1506 11.9052 14.3841C12.3874 14.6089 12.8969 14.7402 13.4122 14.7777L13.4988 15.0157H12.3532C11.6938 15.0157 11.0844 15.2346 10.5941 15.6034V13.4401ZM12.4008 13.3211C11.6437 12.9681 11.0694 12.3414 10.7837 11.5564C10.498 10.7714 10.5351 9.92212 10.8881 9.16502C11.2412 8.40795 11.8679 7.83361 12.6529 7.54796C13.0048 7.41989 13.365 7.35914 13.7194 7.35914C14.9973 7.35914 16.1996 8.14854 16.6613 9.41709C17.2511 11.0375 16.4126 12.8357 14.7921 13.4255C14.0071 13.7113 13.1578 13.6742 12.4008 13.3211ZM1.17278 2.11516H7.66213C8.63213 2.11516 9.42129 2.90432 9.42129 3.87432V15.6034C8.93095 15.2346 8.32158 15.0157 7.66213 15.0157H1.17278V2.11516ZM1.17278 16.1885H7.66213C8.42658 16.1885 9.07837 16.6787 9.32043 17.3612H1.17278V16.1885ZM10.6949 17.3612C10.937 16.6787 11.5888 16.1885 12.3532 16.1885H13.9256L14.3525 17.3612H10.6949ZM17.065 19.6705C16.918 19.7241 16.7587 19.7171 16.6167 19.6509C16.4748 19.5847 16.3671 19.4672 16.3135 19.32L14.6286 14.6908C14.8186 14.6494 15.0073 14.5953 15.1932 14.5276C15.3801 14.4596 15.5592 14.3796 15.7305 14.2893L17.4156 18.9189C17.5261 19.2227 17.3689 19.5599 17.065 19.6705ZM18.0967 17.3612L17.6698 16.1885H18.8426V17.3612H18.0967Z" fill="#9CB9D5"/>
<path d="M2.93209 4.46062H7.66228C7.98612 4.46062 8.24867 4.19807 8.24867 3.87423C8.24867 3.55039 7.98612 3.28784 7.66228 3.28784H2.93209C2.60825 3.28784 2.3457 3.55039 2.3457 3.87423C2.3457 4.19807 2.60825 4.46062 2.93209 4.46062Z" fill="#9CB9D5"/>
<path d="M2.93209 6.80632H7.66228C7.98612 6.80632 8.24867 6.54377 8.24867 6.21993C8.24867 5.89609 7.98612 5.63354 7.66228 5.63354H2.93209C2.60825 5.63354 2.3457 5.89609 2.3457 6.21993C2.3457 6.54377 2.60825 6.80632 2.93209 6.80632Z" fill="#9CB9D5"/>
<path d="M2.93209 9.15178H7.66228C7.98612 9.15178 8.24867 8.88923 8.24867 8.56539C8.24867 8.24155 7.98612 7.979 7.66228 7.979H2.93209C2.60825 7.979 2.3457 8.24155 2.3457 8.56539C2.3457 8.88923 2.60825 9.15178 2.93209 9.15178Z" fill="#9CB9D5"/>
<path d="M2.93209 11.4974H7.66228C7.98612 11.4974 8.24867 11.2348 8.24867 10.911C8.24867 10.5871 7.98612 10.3246 7.66228 10.3246H2.93209C2.60825 10.3246 2.3457 10.5871 2.3457 10.911C2.3457 11.2348 2.60825 11.4974 2.93209 11.4974Z" fill="#9CB9D5"/>
<path d="M8.24867 13.2564C8.24867 12.9326 7.98612 12.67 7.66228 12.67H2.93209C2.60825 12.67 2.3457 12.9326 2.3457 13.2564C2.3457 13.5803 2.60825 13.8428 2.93209 13.8428H7.66228C7.98612 13.8428 8.24867 13.5803 8.24867 13.2564Z" fill="#9CB9D5"/>
<path d="M12.353 4.46062H17.0832C17.407 4.46062 17.6696 4.19807 17.6696 3.87423C17.6696 3.55039 17.407 3.28784 17.0832 3.28784H12.353C12.0291 3.28784 11.7666 3.55039 11.7666 3.87423C11.7666 4.19807 12.0291 4.46062 12.353 4.46062Z" fill="#9CB9D5"/>
</svg>
