<svg width="19" height="20" viewBox="0 0 19 20" fill="none" xmlns="http://www.w3.org/2000/svg">
<path d="M8.79796 2.86884V8.96858L4.96585 7.05278L0 9.51486V19.1623H18.6911V2.8676L13.7253 0.471191L8.79796 2.86884ZM5.51241 18.0673H4.41723V16.9722H5.51241V18.0673ZM6.6076 18.0673V15.8772H3.32205V18.0673H1.09518V10.1941L4.9638 8.27608L8.79796 10.1929V18.0673H6.6076ZM14.2739 18.0673H13.1787V16.9722H14.2739V18.0673ZM17.5959 3.55499V18.0673H15.369V15.8772H12.0835V18.0673H9.89314V3.55375L13.7273 1.68807L17.5959 3.55499Z" fill="#9CB9D5"/>
<path d="M10.9883 4.92682H12.0835V6.02185H10.9883V4.92682Z" fill="#9CB9D5"/>
<path d="M15.3691 4.92682H16.4643V6.02185H15.3691V4.92682Z" fill="#9CB9D5"/>
<path d="M13.1787 4.92682H14.2739V6.02185H13.1787V4.92682Z" fill="#9CB9D5"/>
<path d="M10.9883 7.11688H12.0835V8.21192H10.9883V7.11688Z" fill="#9CB9D5"/>
<path d="M13.1787 7.11688H14.2739V8.21192H13.1787V7.11688Z" fill="#9CB9D5"/>
<path d="M15.3691 7.11688H16.4643V8.21192H15.3691V7.11688Z" fill="#9CB9D5"/>
<path d="M10.9883 9.30695H12.0835V10.402H10.9883V9.30695Z" fill="#9CB9D5"/>
<path d="M15.3691 9.30695H16.4643V10.402H15.3691V9.30695Z" fill="#9CB9D5"/>
<path d="M13.1787 9.30695H14.2739V10.402H13.1787V9.30695Z" fill="#9CB9D5"/>
<path d="M10.9883 11.4971H12.0835V12.5921H10.9883V11.4971Z" fill="#9CB9D5"/>
<path d="M13.1787 11.4971H14.2739V12.5921H13.1787V11.4971Z" fill="#9CB9D5"/>
<path d="M15.3691 11.4971H16.4643V12.5921H15.3691V11.4971Z" fill="#9CB9D5"/>
<path d="M10.9883 13.6871H12.0835V14.7822H10.9883V13.6871Z" fill="#9CB9D5"/>
<path d="M15.3691 13.6871H16.4643V14.7822H15.3691V13.6871Z" fill="#9CB9D5"/>
<path d="M13.1787 13.6871H14.2739V14.7822H13.1787V13.6871Z" fill="#9CB9D5"/>
<path d="M2.22656 11.4971H3.32174V12.5921H2.22656V11.4971Z" fill="#9CB9D5"/>
<path d="M4.41699 11.4971H5.51217V12.5921H4.41699V11.4971Z" fill="#9CB9D5"/>
<path d="M6.60742 11.4971H7.7026V12.5921H6.60742V11.4971Z" fill="#9CB9D5"/>
<path d="M2.22656 13.6871H3.32174V14.7822H2.22656V13.6871Z" fill="#9CB9D5"/>
<path d="M6.60742 13.6871H7.7026V14.7822H6.60742V13.6871Z" fill="#9CB9D5"/>
<path d="M4.41699 13.6871H5.51217V14.7822H4.41699V13.6871Z" fill="#9CB9D5"/>
</svg>
