<svg width="32" height="28" viewBox="0 0 32 28" fill="none" xmlns="http://www.w3.org/2000/svg">
<path d="M16 20.2222C18.5773 20.2222 20.6666 18.1329 20.6666 15.5556C20.6666 12.9783 18.5773 10.8889 16 10.8889C13.4227 10.8889 11.3333 12.9783 11.3333 15.5556C11.3333 18.1329 13.4227 20.2222 16 20.2222Z" stroke="#8F8F8F" stroke-width="3" stroke-linecap="round" stroke-linejoin="round"/>
<path d="M30 12.4446V23.3334C30 24.1586 29.6722 24.9499 29.0888 25.5333C28.5053 26.1168 27.714 26.4446 26.8889 26.4446H5.11111C4.28599 26.4446 3.49467 26.1168 2.91122 25.5333C2.32778 24.9499 2 24.1586 2 23.3334V9.33344C2 8.50832 2.32778 7.717 2.91122 7.13355C3.49467 6.55011 4.28599 6.22233 5.11111 6.22233M5.11111 6.22233H8.22222C9.04734 6.22233 9.83866 5.89455 10.4221 5.31111C11.0056 4.72766 11.3333 3.93634 11.3333 3.11122C11.3333 2.69866 11.4972 2.303 11.7889 2.01128C12.0807 1.71955 12.4763 1.55566 12.8889 1.55566H16L5.11111 6.22233Z" stroke="#8F8F8F" stroke-width="3" stroke-linecap="round" stroke-linejoin="round"/>
<path d="M20.6667 4.66675H30" stroke="#8F8F8F" stroke-width="3" stroke-linecap="round" stroke-linejoin="round"/>
</svg>
