<svg width="32" height="30" viewBox="0 0 32 30" fill="none" xmlns="http://www.w3.org/2000/svg">
<path d="M16 22.2222C18.5773 22.2222 20.6666 20.1329 20.6666 17.5556C20.6666 14.9783 18.5773 12.8889 16 12.8889C13.4227 12.8889 11.3333 14.9783 11.3333 17.5556C11.3333 20.1329 13.4227 22.2222 16 22.2222Z" stroke="#8F8F8F" stroke-width="3" stroke-linecap="round" stroke-linejoin="round"/>
<path d="M30 14.4446V25.3334C30 26.1586 29.6722 26.9499 29.0888 27.5333C28.5053 28.1168 27.714 28.4446 26.8889 28.4446H5.11111C4.28599 28.4446 3.49467 28.1168 2.91122 27.5333C2.32778 26.9499 2 26.1586 2 25.3334V11.3334C2 10.5083 2.32778 9.717 2.91122 9.13355C3.49467 8.55011 4.28599 8.22233 5.11111 8.22233M5.11111 8.22233H8.22222C9.04734 8.22233 9.83866 7.89455 10.4221 7.31111C11.0056 6.72766 11.3333 5.93634 11.3333 5.11122C11.3333 4.69866 11.4972 4.303 11.7889 4.01128C12.0807 3.71955 12.4763 3.55566 12.8889 3.55566H16L5.11111 8.22233Z" stroke="#8F8F8F" stroke-width="3" stroke-linecap="round" stroke-linejoin="round"/>
<path d="M20.6667 6.66675H30" stroke="#8F8F8F" stroke-width="3" stroke-linecap="round" stroke-linejoin="round"/>
<path d="M25.3333 2V11.3333" stroke="#8F8F8F" stroke-width="3" stroke-linecap="round" stroke-linejoin="round"/>
</svg>
