<svg width="17" height="17" viewBox="0 0 17 17" fill="none" xmlns="http://www.w3.org/2000/svg">
<circle cx="8.5" cy="8.5" r="8.5" fill="#B4B4B4"/>
<path d="M9.1229 9.903H7.8899L7.6739 5.997H9.3299L9.1229 9.903ZM9.0959 11.856C8.9279 12.018 8.7299 12.099 8.5019 12.099C8.2739 12.099 8.0759 12.018 7.9079 11.856C7.7459 11.688 7.6649 11.49 7.6649 11.262C7.6649 11.034 7.7459 10.836 7.9079 10.668C8.0759 10.5 8.2739 10.416 8.5019 10.416C8.7299 10.416 8.9279 10.5 9.0959 10.668C9.2639 10.836 9.3479 11.034 9.3479 11.262C9.3479 11.49 9.2639 11.688 9.0959 11.856Z" fill="white"/>
</svg>
