<svg width="22" height="22" viewBox="0 0 22 22" fill="none" xmlns="http://www.w3.org/2000/svg">
<path d="M11 0C8.08262 0 5.28473 1.15893 3.22183 3.22183C1.15893 5.28473 0 8.08262 0 11C0 13.9174 1.15893 16.7153 3.22183 18.7782C5.28473 20.8411 8.08262 22 11 22C13.9174 22 16.7153 20.8411 18.7782 18.7782C20.8411 16.7153 22 13.9174 22 11C22 8.08262 20.8411 5.28473 18.7782 3.22183C16.7153 1.15893 13.9174 0 11 0V0ZM11 19.9375C8.62963 19.9375 6.35634 18.9959 4.68023 17.3198C3.00413 15.6437 2.0625 13.3704 2.0625 11C2.0625 8.62963 3.00413 6.35634 4.68023 4.68023C6.35634 3.00413 8.62963 2.0625 11 2.0625C13.3704 2.0625 15.6437 3.00413 17.3198 4.68023C18.9959 6.35634 19.9375 8.62963 19.9375 11C19.9375 13.3704 18.9959 15.6437 17.3198 17.3198C15.6437 18.9959 13.3704 19.9375 11 19.9375Z" fill="white"/>
<path d="M13.5 7L11 9.5L8.5 7L7 8.5L9.5 11L7 13.5L8.5 15L11 12.5L13.5 15L15 13.5L12.5 11L15 8.5L13.5 7Z" fill="white"/>
</svg>
