<svg width="21" height="21" viewBox="0 0 21 21" fill="none" xmlns="http://www.w3.org/2000/svg">
<path d="M15.7751 6H14.4522C14.1645 6 13.8909 6.13869 13.7217 6.37644L9.28767 12.5467L7.2794 9.75024C7.11017 9.51532 6.83939 9.37381 6.54887 9.37381H5.22601C5.04267 9.37381 4.93548 9.58325 5.04267 9.73326L8.55714 14.6241C8.64016 14.7404 8.74961 14.8352 8.87641 14.9005C9.00321 14.9659 9.14371 15 9.28626 15C9.42882 15 9.56932 14.9659 9.69612 14.9005C9.82292 14.8352 9.93237 14.7404 10.0154 14.6241L15.9556 6.35946C16.0656 6.20945 15.9584 6 15.7751 6Z" fill="white"/>
<path d="M10.5 0C4.70156 0 0 4.70156 0 10.5C0 16.2984 4.70156 21 10.5 21C16.2984 21 21 16.2984 21 10.5C21 4.70156 16.2984 0 10.5 0ZM10.5 19.2188C5.68594 19.2188 1.78125 15.3141 1.78125 10.5C1.78125 5.68594 5.68594 1.78125 10.5 1.78125C15.3141 1.78125 19.2188 5.68594 19.2188 10.5C19.2188 15.3141 15.3141 19.2188 10.5 19.2188Z" fill="white"/>
</svg>
