<svg width="16" height="13" viewBox="0 0 16 13" fill="none" xmlns="http://www.w3.org/2000/svg">
<path fill-rule="evenodd" clip-rule="evenodd" d="M3.763 0H1.146C0.514 0 0 0.502 0 1.123V6.83C0 7.451 0.515 7.953 1.146 7.953H3.763C4.397 7.953 4.911 7.451 4.911 6.83V1.123C4.911 0.502 4.396 0 3.763 0Z" fill="#B4B4B4"/>
<path fill-rule="evenodd" clip-rule="evenodd" d="M13.8904 3.01008V1.92608H15.4044C15.3284 0.780076 14.7464 0.0280762 13.6644 0.0280762H9.23845C8.55045 0.0280762 8.20945 1.34008 6.53945 1.34008L5.98145 1.32208V7.27708C5.98145 7.27708 7.04445 7.44308 7.40045 8.56808C7.40045 8.56808 8.85145 12.5291 9.97045 12.9251C10.6284 12.9251 11.1614 12.9721 11.1614 11.8001L10.5664 9.98608C10.5664 9.98608 10.2134 7.95308 12.7064 7.95308H14.8514C15.5394 7.95308 15.9114 7.52908 15.9114 6.90408C15.9114 6.90408 15.9254 6.54708 15.9184 6.00908H13.8914V4.92508H15.8814C15.846 4.28272 15.7732 3.64297 15.6634 3.00908H13.8904V3.01008Z" fill="#B4B4B4"/>
</svg>
