<svg width="16" height="16" viewBox="0 0 16 16" fill="none" xmlns="http://www.w3.org/2000/svg">
<path d="M11.2631 0.922119H5.34097C2.89145 0.922119 0.899414 2.91416 0.899414 5.36368V14.9871C0.899414 15.1834 0.977405 15.3717 1.11623 15.5105C1.25506 15.6493 1.44334 15.7273 1.63967 15.7273H11.2631C13.7126 15.7273 15.7046 13.7353 15.7046 11.2858V5.36368C15.7046 2.91416 13.7126 0.922119 11.2631 0.922119ZM14.2241 11.2858C14.2241 12.9188 12.8961 14.2468 11.2631 14.2468H2.37993V5.36368C2.37993 3.73066 3.70796 2.40264 5.34097 2.40264H11.2631C12.8961 2.40264 14.2241 3.73066 14.2241 5.36368V11.2858Z" fill="white"/>
<path d="M4.60059 10.5367V12.0165H6.08036L10.1733 7.92875L8.69422 6.44971L4.60059 10.5367Z" fill="white"/>
<path d="M10.8706 7.23073L9.3916 5.75021L10.519 4.62354L11.9995 6.10331L10.8706 7.23073Z" fill="white"/>
</svg>
