<svg width="27" height="22" viewBox="0 0 27 22" fill="none" xmlns="http://www.w3.org/2000/svg">
<path d="M12.4606 11.3394L2.16682 3.33578L1.33813 2.69092L2.16983 3.3388V19.0446H24.8305V3.3388L14.5308 11.3394C14.2347 11.5693 13.8705 11.6942 13.4957 11.6942C13.1208 11.6942 12.7566 11.5693 12.4606 11.3394Z" fill="#3987D0" fill-opacity="0.38"/>
<path d="M26.0357 0H0.964286C0.430915 0 0 0.430915 0 0.964286V20.25C0 20.7834 0.430915 21.2143 0.964286 21.2143H26.0357C26.5691 21.2143 27 20.7834 27 20.25V0.964286C27 0.430915 26.5691 0 26.0357 0ZM23.1881 2.17266L13.5 9.70312L3.81194 2.17266H23.1881ZM24.8304 3.33884V19.0446H2.16964V3.33884L1.33795 2.69096L2.16663 3.33583L12.4604 11.3394C12.7564 11.5694 13.1206 11.6942 13.4955 11.6942C13.8704 11.6942 14.2345 11.5694 14.5306 11.3394L24.8304 3.33884L25.6621 2.69096L24.4778 1.1692H24.4808L25.6651 2.69096L24.8304 3.33884Z" fill="#3987D0"/>
</svg>
