<svg width="28" height="28" viewBox="0 0 28 28" fill="none" xmlns="http://www.w3.org/2000/svg">
<path d="M14 0C6.2804 0 0 5.0246 0 11.2C0 15.2712 2.6572 18.921 7 20.9076V28L14.476 22.393C21.9758 22.1928 28 17.248 28 11.2C28 5.0246 21.7196 0 14 0ZM14 19.6H13.5338L9.8 22.4V19.0162L8.9026 18.6704C5.138 17.2214 2.8 14.3584 2.8 11.2C2.8 6.5674 7.8246 2.8 14 2.8C20.1754 2.8 25.2 6.5674 25.2 11.2C25.2 15.8326 20.1754 19.6 14 19.6Z" fill="#8F8F8F"/>
<path d="M9.10419 13.4247V15.3819H11.0614L16.4794 9.97234L14.5208 8.01514L9.10419 13.4247Z" fill="#8F8F8F"/>
<path d="M17.402 9.04963L15.4448 7.09243L16.9386 5.59863L18.8958 7.55583L17.402 9.04963Z" fill="#8F8F8F"/>
</svg>
