<svg width="11" height="10" viewBox="0 0 11 10" fill="none" xmlns="http://www.w3.org/2000/svg">
<path d="M9.15729 6.6C8.0882 6.0625 6.70093 5.625 5.09094 5.625C3.48094 5.625 2.09367 6.0625 1.02458 6.6C0.714076 6.75707 0.453959 6.99558 0.273104 7.28905C0.0922491 7.58252 -0.00226886 7.91947 4.13573e-05 8.2625V10H10.1818V8.2625C10.1818 7.5625 9.79365 6.91875 9.15729 6.6ZM5.09094 5C6.4973 5 7.63638 3.88125 7.63638 2.5C7.63638 1.11875 6.4973 0 5.09094 0C3.68458 0 2.54549 1.11875 2.54549 2.5C2.54549 3.88125 3.68458 5 5.09094 5Z" fill="#B4B4B4"/>
</svg>
