<svg width="25" height="25" viewBox="0 0 25 25" fill="none" xmlns="http://www.w3.org/2000/svg">
<path d="M12.25 0C5.48516 0 0 5.48516 0 12.25C0 19.0148 5.48516 24.5 12.25 24.5C19.0148 24.5 24.5 19.0148 24.5 12.25C24.5 5.48516 19.0148 0 12.25 0ZM16.8164 17.325C15.7063 18.3477 14.1914 18.9492 12.384 18.9492C9.76719 18.9492 7.50313 17.448 6.40117 15.2605C5.94727 14.3555 5.6875 13.3328 5.6875 12.25C5.6875 11.1672 5.94727 10.1445 6.40117 9.23945C7.50313 7.04922 9.76719 5.54805 12.384 5.54805C14.1887 5.54805 15.7035 6.2125 16.8656 7.29258L14.9461 9.21484C14.2516 8.55039 13.3684 8.21406 12.3867 8.21406C10.6422 8.21406 9.16562 9.39258 8.63789 10.9758C8.50391 11.3777 8.42734 11.807 8.42734 12.25C8.42734 12.693 8.50391 13.1223 8.63789 13.5242C9.16562 15.1074 10.6422 16.2859 12.384 16.2859C13.2863 16.2859 14.052 16.048 14.6508 15.6461C15.3617 15.1703 15.832 14.4621 15.9879 13.6227H12.384V11.0305H18.6922C18.7715 11.4707 18.8125 11.9273 18.8125 12.4004C18.8125 14.443 18.0824 16.1574 16.8164 17.325Z" fill="#00C48C"/>
</svg>
