<svg width="16" height="13" viewBox="0 0 16 13" fill="none" xmlns="http://www.w3.org/2000/svg">
<path fill-rule="evenodd" clip-rule="evenodd" d="M3.763 12.9242H1.146C0.845318 12.9271 0.55576 12.8106 0.340897 12.6003C0.126035 12.3899 0.00342979 12.1029 0 11.8022V6.09419C0 5.47419 0.515 4.97119 1.146 4.97119H3.763C4.397 4.97119 4.911 5.47419 4.911 6.09419V11.8022C4.911 12.4222 4.396 12.9242 3.763 12.9242Z" fill="#B4B4B4"/>
<path fill-rule="evenodd" clip-rule="evenodd" d="M13.8904 9.91526V10.9993H15.4044C15.3284 12.1453 14.7464 12.8963 13.6644 12.8963H9.23845C8.55045 12.8963 8.20945 11.5843 6.53945 11.5843L5.98145 11.6033V5.64726C5.98145 5.64726 7.04445 5.48126 7.40045 4.35626C7.40045 4.35626 8.85145 0.395259 9.97045 0.000259114C10.6284 0.000259114 11.1614 -0.046741 11.1614 1.12526L10.5664 2.93926C10.5664 2.93926 10.2134 4.97126 12.7064 4.97126H14.8514C15.5394 4.97126 15.9114 5.39526 15.9114 6.02026C15.9114 6.02026 15.9254 6.37726 15.9184 6.91626H13.8914V8.00026H15.8814C15.846 8.64262 15.7732 9.28237 15.6634 9.91626H13.8904V9.91526Z" fill="#B4B4B4"/>
</svg>
