<svg width="20" height="28" viewBox="0 0 20 28" fill="none" xmlns="http://www.w3.org/2000/svg">
<g clip-path="url(#clip0)">
<path fill-rule="evenodd" clip-rule="evenodd" d="M14.1632 9.36091L10.6918 6.9688L13.156 5.84521C13.4367 6.16269 13.6684 6.5206 13.8434 6.907C14.1932 7.67422 14.3047 8.52929 14.1632 9.36091ZM10.8342 12.8076L11.1179 10.1208L7.26153 11.8787C7.74854 12.2939 8.32294 12.5931 8.94167 12.7539C9.5604 12.9148 10.2074 12.9331 10.8342 12.8076ZM11.3637 12.6644C11.4925 12.6196 11.6215 12.57 11.7467 12.5129C12.2921 12.2646 12.7784 11.9026 13.1732 11.4508C13.568 10.9991 13.8622 10.4682 14.0361 9.89342L11.8155 8.36303L11.3637 12.6644ZM6.8661 11.4945L9.32701 10.3741L5.85228 7.87737C5.80319 8.13624 5.77837 8.39915 5.77814 8.66266V8.66778C5.778 9.26834 5.90639 9.86193 6.15465 10.4085C6.33521 10.8047 6.57513 11.171 6.8661 11.4945ZM8.59836 4.66509C8.48319 4.70625 8.3682 4.75119 8.25304 4.80259C7.72024 5.0454 7.24371 5.39681 6.85379 5.83444C6.46386 6.27207 6.16909 6.78634 5.98824 7.34448L8.19631 8.93194L8.59836 4.66509ZM9.15188 4.52874L8.86991 7.21534L12.7263 5.45779C12.2389 5.04264 11.6642 4.74341 11.0452 4.58252C10.4262 4.42163 9.77897 4.40325 9.15188 4.52874Z" fill="#3987D0"/>
<path fill-rule="evenodd" clip-rule="evenodd" d="M8.43944 6.31705C6.12376 7.87605 7.23517 11.4896 10.0004 11.4896C12.7638 11.4896 13.8785 7.87852 11.5615 6.31705C11.099 6.00857 10.5559 5.84399 10.0005 5.84399C9.445 5.84399 8.90193 6.00857 8.43944 6.31705Z" fill="#FEFEFE"/>
</g>
<path d="M9.99576 8.37514e-10C7.35274 0.00220104 4.81798 1.04713 2.94511 2.90657C1.07224 4.76601 0.0134496 7.28884 0 9.92406C0 13.8751 2.22317 17.1831 3.85235 19.5943L4.14934 20.0343C5.77028 22.3766 7.50918 24.6356 9.35935 26.8026L10.0042 27.5556L10.6491 26.8026C12.4991 24.6354 14.238 22.3764 15.8591 20.0343L16.1561 19.5858C17.7768 17.1746 20 13.8751 20 9.92406C19.9865 7.28738 18.9266 4.76327 17.0519 2.90359C15.1772 1.04391 12.6402 -3.41429e-05 9.99576 8.37514e-10ZM9.99576 14.3827C8.89483 14.3827 7.81862 14.0572 6.90323 13.4473C5.98784 12.8375 5.27438 11.9707 4.85308 10.9566C4.43177 9.94244 4.32154 8.82651 4.53632 7.74991C4.7511 6.67331 5.28124 5.68439 6.05972 4.90821C6.83819 4.13202 7.83003 3.60343 8.90981 3.38928C9.98958 3.17513 11.1088 3.28504 12.1259 3.70511C13.1431 4.12518 14.0124 4.83654 14.624 5.74924C15.2357 6.66194 15.5622 7.73498 15.5622 8.83267C15.5622 10.3046 14.9757 11.7163 13.9318 12.7571C12.8879 13.798 11.4721 14.3827 9.99576 14.3827Z" fill="#3987D0"/>
<defs>
<clipPath id="clip0">
<rect width="8.44444" height="8.44444" fill="white" transform="translate(5.77814 4.44458)"/>
</clipPath>
</defs>
</svg>
