<svg width="149" height="149" viewBox="0 0 149 149" fill="none" xmlns="http://www.w3.org/2000/svg">
<g clip-path="url(#clip0)">
<path fill-rule="evenodd" clip-rule="evenodd" d="M147.952 86.7238L86.7004 44.5157L130.18 24.6902C135.134 30.2921 139.222 36.6074 142.309 43.4253C148.482 56.9628 150.448 72.0502 147.952 86.7238ZM89.2132 147.539L94.2186 100.132L26.1741 131.15C34.7672 138.475 44.9023 143.755 55.8197 146.593C66.7371 149.431 78.1535 149.755 89.2132 147.539ZM98.5561 145.013C100.829 144.223 103.105 143.347 105.313 142.339C114.937 137.959 123.518 131.571 130.484 123.6C137.45 115.63 142.641 106.261 145.709 96.1198L106.528 69.1166L98.5561 145.013ZM19.1968 124.371L62.6189 104.602L1.30831 60.5472C0.44209 65.1149 0.00407905 69.7539 2.04276e-06 74.4035V74.4938C-0.00248336 85.0905 2.26302 95.5642 6.64347 105.208C9.82941 112.2 14.0628 118.662 19.1968 124.371ZM49.762 3.86744C47.7299 4.59355 45.7011 5.38656 43.669 6.29351C34.2679 10.5779 25.8596 16.7784 18.9795 24.5003C12.0994 32.2222 6.89824 41.2962 3.70723 51.1444L42.6681 79.1549L49.762 3.86744ZM59.5288 1.46153L54.5535 48.8659L122.598 17.8544C113.999 10.5291 103.859 5.24932 92.9367 2.41047C82.0146 -0.42838 70.5937 -0.752789 59.5288 1.46153Z" fill="#3987D0"/>
<path fill-rule="evenodd" clip-rule="evenodd" d="M46.9557 33.0386C6.09617 60.5468 25.7067 124.307 74.4979 124.307C123.259 124.307 142.926 60.5903 102.043 33.0386C93.8827 27.5955 84.3003 24.6917 74.4995 24.6917C64.6986 24.6917 55.1162 27.5955 46.9557 33.0386Z" fill="#FEFEFE"/>
<path fill-rule="evenodd" clip-rule="evenodd" d="M53.6763 43.1606C22.7908 63.9533 37.6195 112.147 74.4981 112.147C111.353 112.147 126.222 63.9866 95.3167 43.1606C89.1488 39.0448 81.9053 36.8489 74.4965 36.8489C67.0878 36.8489 59.8443 39.0448 53.6763 43.1606Z" fill="#D5D5D7"/>
<path fill-rule="evenodd" clip-rule="evenodd" d="M57.884 49.4947C33.2414 66.0813 45.0706 104.538 74.498 104.538C103.905 104.538 115.768 66.1114 91.1085 49.4947C86.1867 46.2118 80.4074 44.4603 74.4963 44.4603C68.5851 44.4603 62.8058 46.2118 57.884 49.4947Z" fill="#5F5F5F"/>
<path fill-rule="evenodd" clip-rule="evenodd" d="M59.8428 52.4326C38.0999 67.0718 48.5343 101.001 74.4981 101.001C100.445 101.001 110.909 67.0983 89.1534 52.4326C84.8104 49.5391 79.7123 47.9956 74.4981 47.9956C69.2839 47.9956 64.1858 49.5391 59.8428 52.4326Z" fill="#434443"/>
<path fill-rule="evenodd" clip-rule="evenodd" d="M66.3625 62.2601C54.3034 70.3774 60.0926 89.2025 74.4979 89.2025C88.8897 89.2025 94.6987 70.3909 82.6263 62.2601C80.2171 60.6529 77.388 59.7955 74.4944 59.7955C71.6008 59.7955 68.7717 60.6529 66.3625 62.2601Z" fill="#22201E"/>
<path fill-rule="evenodd" clip-rule="evenodd" d="M65.2413 69.5444C59.5421 65.7132 62.2785 56.8159 69.0887 56.8159C75.8924 56.8159 78.6355 65.7061 72.9297 69.5444C71.7912 70.3053 70.4536 70.7113 69.0855 70.7113C67.7173 70.7113 66.3797 70.3053 65.2413 69.5444Z" fill="#BABCBE"/>
<path fill-rule="evenodd" clip-rule="evenodd" d="M81.0644 89.0219C80.4557 88.6153 79.9936 88.0231 79.7464 87.3328C79.4992 86.6425 79.4801 85.8907 79.6919 85.1887C79.9037 84.4867 80.3351 83.8716 80.9224 83.4345C81.5097 82.9974 82.2217 82.7614 82.9532 82.7614C83.6846 82.7614 84.3966 82.9974 84.9839 83.4345C85.5712 83.8716 86.0026 84.4867 86.2144 85.1887C86.4262 85.8907 86.4071 86.6425 86.1599 87.3328C85.9128 88.0231 85.4506 88.6153 84.8419 89.0219C84.2823 89.3951 83.6252 89.5942 82.9532 89.5942C82.2811 89.5942 81.624 89.3951 81.0644 89.0219Z" fill="#FEFEFE"/>
</g>
<defs>
<clipPath id="clip0">
<rect width="149" height="149" fill="white"/>
</clipPath>
</defs>
</svg>
