<svg width="28" height="28" viewBox="0 0 28 28" fill="none" xmlns="http://www.w3.org/2000/svg">
<path d="M20.4166 7.58342L26.8333 10.5001V25.6667L18.6666 22.1667L9.33329 25.6667L1.16663 22.1667V7.00008L6.99996 9.33342L20.4166 7.58342ZM18.6666 22.1667V14.0001V22.1667ZM9.33329 25.6667V14.0001V25.6667ZM14 18.9853C14 18.9853 6.99996 13.4167 6.99996 8.16675C6.99996 3.79175 10.5 1.16675 14 1.16675C17.5 1.16675 21 3.79175 21 8.16675C21 13.4167 14 18.9853 14 18.9853ZM15.1666 8.16675C15.1666 7.85733 15.0437 7.56058 14.8249 7.34179C14.6061 7.123 14.3094 7.00008 14 7.00008C13.6905 7.00008 13.3938 7.123 13.175 7.34179C12.9562 7.56058 12.8333 7.85733 12.8333 8.16675C12.8333 8.47617 12.9562 8.77291 13.175 8.99171C13.3938 9.2105 13.6905 9.33342 14 9.33342C14.3094 9.33342 14.6061 9.2105 14.8249 8.99171C15.0437 8.77291 15.1666 8.47617 15.1666 8.16675Z" stroke="#3987D0" stroke-width="2"/>
</svg>
