<svg width="70" height="70" viewBox="0 0 70 70" fill="none" xmlns="http://www.w3.org/2000/svg">
<path d="M51.3334 41.4166C52.2084 39.3749 52.5 37.3333 52.5 34.9999C52.5 25.3749 44.625 17.4999 35 17.4999C32.6667 17.4999 30.3334 18.0833 28.5834 18.6666L33.25 23.3333H35C41.4167 23.3333 46.6667 28.5833 46.6667 34.9999C46.6667 35.5833 46.6667 36.1666 46.375 36.7499L51.3334 41.4166ZM35 11.6666C47.8334 11.6666 58.3334 22.1666 58.3334 34.9999C58.3334 39.0833 57.1667 42.5833 55.4167 45.7916L59.7917 50.1666C62.4167 45.7916 64.1667 40.5416 64.1667 34.9999C64.1667 18.9583 51.0417 5.83325 35 5.83325C29.4584 5.83325 24.2084 7.29159 19.8334 10.2083L24.2084 14.5833C27.4167 12.5416 30.9167 11.6666 35 11.6666ZM9.62504 7.29159L5.83337 11.0833L11.9584 17.2083C8.16671 22.1666 5.83337 28.2916 5.83337 34.9999C5.83337 45.7916 11.6667 55.1249 20.4167 60.0833L23.3334 55.1249C16.3334 51.0416 11.6667 43.4583 11.6667 34.9999C11.6667 29.7499 13.4167 25.0833 16.0417 21.2916L20.4167 25.6666C18.6667 28.2916 17.5 31.4999 17.5 34.9999C17.5 41.4166 21 46.9583 26.25 50.1666L29.1667 45.2083C25.6667 43.1666 23.3334 39.3749 23.3334 35.2916C23.3334 33.5416 23.9167 31.7916 24.5 30.0416L29.1667 34.7083V35.2916C29.1667 38.4999 31.7917 41.1249 35 41.1249H35.5834L57.4584 62.9999L61.25 59.2083L12.5417 10.2083L9.62504 7.29159Z" fill="#747474"/>
</svg>
