<svg width="19" height="19" viewBox="0 0 19 19" fill="none" xmlns="http://www.w3.org/2000/svg">
<path d="M6.45398 0H2.16145C0.969637 0 0 0.969637 0 2.16145V6.45398C0 7.64579 0.969637 8.61543 2.16145 8.61543H6.45398C7.64579 8.61543 8.61543 7.64579 8.61543 6.45398V2.16145C8.61543 0.969637 7.64579 0 6.45398 0ZM7.15519 6.45398C7.15519 6.84061 6.84061 7.15519 6.45398 7.15519H2.16145C1.77481 7.15519 1.46024 6.84061 1.46024 6.45398V2.16145C1.46024 1.77481 1.77481 1.46024 2.16145 1.46024H6.45398C6.84061 1.46024 7.15519 1.77481 7.15519 2.16145V6.45398Z" fill="#9CB9D5"/>
<path d="M16.5003 0H12.2656C11.0578 0 10.0752 0.982597 10.0752 2.19036V6.42507C10.0752 7.63283 11.0578 8.61543 12.2656 8.61543H16.5003C17.708 8.61543 18.6906 7.63283 18.6906 6.42507V2.19036C18.6906 0.982597 17.708 0 16.5003 0ZM17.2304 6.42507C17.2304 6.82765 16.9028 7.15519 16.5003 7.15519H12.2656C11.863 7.15519 11.5354 6.82765 11.5354 6.42507V2.19036C11.5354 1.78777 11.863 1.46024 12.2656 1.46024H16.5003C16.9028 1.46024 17.2304 1.78777 17.2304 2.19036V6.42507Z" fill="#9CB9D5"/>
<path d="M6.45398 10.0757H2.16145C0.969637 10.0757 0 11.0453 0 12.2371V16.5297C0 17.7215 0.969637 18.6911 2.16145 18.6911H6.45398C7.64579 18.6911 8.61543 17.7215 8.61543 16.5297V12.2371C8.61543 11.0453 7.64579 10.0757 6.45398 10.0757ZM7.15519 16.5297C7.15519 16.9163 6.84061 17.2309 6.45398 17.2309H2.16145C1.77481 17.2309 1.46024 16.9163 1.46024 16.5297V12.2371C1.46024 11.8505 1.77481 11.5359 2.16145 11.5359H6.45398C6.84061 11.5359 7.15519 11.8505 7.15519 12.2371V16.5297Z" fill="#9CB9D5"/>
<path d="M16.5003 10.0757H12.2656C11.0578 10.0757 10.0752 11.0583 10.0752 12.266V16.5007C10.0752 17.7085 11.0578 18.6911 12.2656 18.6911H16.5003C17.708 18.6911 18.6906 17.7085 18.6906 16.5007V12.266C18.6906 11.0583 17.708 10.0757 16.5003 10.0757ZM17.2304 16.5007C17.2304 16.9033 16.9028 17.2309 16.5003 17.2309H12.2656C11.863 17.2309 11.5354 16.9033 11.5354 16.5007V12.266C11.5354 11.8635 11.863 11.5359 12.2656 11.5359H16.5003C16.9028 11.5359 17.2304 11.8635 17.2304 12.266V16.5007Z" fill="#9CB9D5"/>
</svg>
