<svg width="16" height="15" viewBox="0 0 16 15" fill="none" xmlns="http://www.w3.org/2000/svg">
<path d="M8.03042 11.5092L12.0308 13.9962C12.3082 14.1694 12.6508 13.913 12.5774 13.587L8.03042 11.5092ZM8.03042 11.5092L4.03005 13.9962C3.75196 14.1687 3.41004 13.9123 3.48341 13.587M8.03042 11.5092L3.48341 13.587M3.48341 13.587L4.54147 8.8959L3.48341 13.587ZM9.72352 4.8573L9.83893 5.13889L10.1421 5.16573L14.512 5.55273L11.1863 8.52298L10.9669 8.71894L11.0316 9.00591L12.0233 13.4028L8.29441 11.0846L8.03042 10.9205L7.76643 11.0846L4.03751 13.4028L5.02922 9.00591L5.09394 8.71894L4.87454 8.52298L1.54807 5.55198L5.91806 5.16498L6.22117 5.13813L6.33659 4.85657L8.03005 0.725448L9.72352 4.8573ZM14.7171 5.36959L14.717 5.36963C14.7171 5.36955 14.7172 5.36946 14.7173 5.36938L14.7171 5.36959ZM3.97115 13.6971L3.97116 13.697L3.97115 13.6971ZM7.90515 0.420715L7.9053 0.421075L7.90515 0.420715Z" stroke="#8F8F8F"/>
</svg>
