<svg width="19" height="20" viewBox="0 0 19 20" fill="none" xmlns="http://www.w3.org/2000/svg">
<path d="M18.0235 14.2094H16.6885V11.5392C16.6885 11.1706 16.3896 10.8717 16.0209 10.8717H10.0131V6.19894H13.3508C13.7194 6.19894 14.0183 5.90007 14.0183 5.53139V1.52616C14.0183 1.15751 13.7194 0.858643 13.3508 0.858643H5.3403C4.97161 0.858643 4.67275 1.15751 4.67275 1.52619V5.53143C4.67275 5.90011 4.97161 6.19898 5.3403 6.19898H8.67798V10.8717H2.67013C2.30144 10.8717 2.00258 11.1706 2.00258 11.5393V14.2094H0.667552C0.298867 14.2094 0 14.5083 0 14.877V18.8822C0 19.2509 0.298867 19.5497 0.667552 19.5497H4.67278C5.04147 19.5497 5.34034 19.2509 5.34034 18.8822V14.877C5.34034 14.5083 5.04147 14.2094 4.67278 14.2094H3.33768V12.2068H8.67798V14.2094H7.34291C6.97423 14.2094 6.67536 14.5083 6.67536 14.877V18.8822C6.67536 19.2509 6.97423 19.5497 7.34291 19.5497H11.3481C11.7168 19.5497 12.0157 19.2509 12.0157 18.8822V14.877C12.0157 14.5083 11.7168 14.2094 11.3481 14.2094H10.0131V12.2068H15.3534V14.2094H14.0183C13.6496 14.2094 13.3508 14.5083 13.3508 14.877V18.8822C13.3508 19.2509 13.6496 19.5497 14.0183 19.5497H18.0235C18.3922 19.5497 18.6911 19.2509 18.6911 18.8822V14.877C18.6911 14.5083 18.3922 14.2094 18.0235 14.2094ZM4.00523 15.5445V18.2147H1.33506V15.5445H4.00523ZM10.6806 15.5445V18.2147H8.01047V15.5445H10.6806ZM6.00785 4.86388V2.19371H12.6832V4.86388H6.00785ZM17.356 18.2146H14.6858V15.5445H17.356V18.2146Z" fill="#00498D"/>
</svg>
