<svg width="24" height="24" viewBox="0 0 24 24" fill="none" xmlns="http://www.w3.org/2000/svg">
<path d="M24 4H0V20.0002H24V4Z" fill="#F0F0F0"/>
<path d="M13.5 3.99976H10.5V10.4997H0V13.4997H10.5V19.9997H13.5V13.4997H24V10.4997H13.5V3.99976Z" fill="#D80027"/>
<path d="M18.4586 14.7825L24 17.861V14.7825H18.4586Z" fill="#0052B4"/>
<path d="M14.6086 14.7825L23.9999 19.9998V18.5245L17.2643 14.7825H14.6086Z" fill="#0052B4"/>
<path d="M21.4984 19.9999L14.6086 16.1719V19.9999H21.4984Z" fill="#0052B4"/>
<path d="M14.6086 14.7825L23.9999 19.9998V18.5245L17.2643 14.7825H14.6086Z" fill="#F0F0F0"/>
<path d="M14.6086 14.7825L23.9999 19.9998V18.5245L17.2643 14.7825H14.6086Z" fill="#D80027"/>
<path d="M4.23473 14.7822L0 17.1349V14.7822H4.23473Z" fill="#0052B4"/>
<path d="M9.39137 15.4458V19.9998H1.19495L9.39137 15.4458Z" fill="#0052B4"/>
<path d="M6.73561 14.7825L0 18.5245V19.9998L9.39131 14.7825H6.73561Z" fill="#D80027"/>
<path d="M5.54133 9.21724L0 6.13867V9.21724H5.54133Z" fill="#0052B4"/>
<path d="M9.39131 9.21713L0 3.99976V5.4751L6.73561 9.21713H9.39131Z" fill="#0052B4"/>
<path d="M2.50159 3.99976L9.39137 7.82776V3.99976H2.50159Z" fill="#0052B4"/>
<path d="M9.39131 9.21713L0 3.99976V5.4751L6.73561 9.21713H9.39131Z" fill="#F0F0F0"/>
<path d="M9.39131 9.21713L0 3.99976V5.4751L6.73561 9.21713H9.39131Z" fill="#D80027"/>
<path d="M19.7651 9.2174L23.9999 6.86475V9.2174H19.7651Z" fill="#0052B4"/>
<path d="M14.6086 8.55395V4H22.8051L14.6086 8.55395Z" fill="#0052B4"/>
<path d="M17.2643 9.21713L23.9999 5.4751V3.99976L14.6086 9.21713H17.2643Z" fill="#D80027"/>
</svg>
