<svg width="22" height="17" viewBox="0 0 22 17" fill="none" xmlns="http://www.w3.org/2000/svg">
<path d="M8.8 6.88245H5.6111L5.6122 6.87216C5.75583 6.14144 6.03694 5.44738 6.4394 4.82982C7.0383 3.91301 7.87836 3.19452 8.8594 2.76004C9.1916 2.61375 9.5381 2.50174 9.8912 2.42746C10.6237 2.27316 11.3785 2.27316 12.111 2.42746C13.1637 2.65157 14.1296 3.19252 14.8885 3.98293L16.4461 2.36917C15.7441 1.63959 14.9135 1.05718 13.9997 0.653686C13.5336 0.448685 13.0491 0.292479 12.5532 0.187386C11.53 -0.0286079 10.4755 -0.0286079 9.4523 0.187386C8.95604 0.292915 8.47111 0.449501 8.0047 0.654829C6.63028 1.26068 5.45372 2.26641 4.6167 3.55092C4.05338 4.41706 3.65944 5.38982 3.4573 6.41387C3.4265 6.56816 3.41 6.72587 3.388 6.88245H0L4.4 11.454L8.8 6.88245ZM13.2 9.16824H16.3889L16.3878 9.17738C16.1004 10.6423 15.2693 11.9307 14.0745 12.7638C13.4803 13.1823 12.8122 13.4744 12.1088 13.6232C11.3767 13.7775 10.6222 13.7775 9.8901 13.6232C9.1868 13.474 8.51878 13.1819 7.9244 12.7638C7.63248 12.5586 7.35993 12.3252 7.1104 12.0666L5.555 13.6827C6.25736 14.412 7.08832 14.9941 8.0025 15.397C8.4689 15.6027 8.9562 15.7593 9.449 15.8633C10.4718 16.0794 11.526 16.0794 12.5488 15.8633C14.5206 15.4381 16.255 14.2306 17.3833 12.4975C17.9461 11.632 18.3396 10.66 18.5416 9.63682C18.5713 9.48253 18.5889 9.32481 18.6109 9.16824H22L17.6 4.59667L13.2 9.16824Z" fill="white"/>
</svg>
