<svg width="16" height="12" viewBox="0 0 16 12" fill="none" xmlns="http://www.w3.org/2000/svg">
<path fill-rule="evenodd" clip-rule="evenodd" d="M0 5.95021C0.715647 2.55561 3.8342 0 7.57299 0C11.3118 0 14.4303 2.55561 15.146 5.95021C14.4303 9.3448 11.3118 11.9004 7.57299 11.9004C3.8342 11.9004 0.715647 9.3448 0 5.95021ZM7.57299 9.66908C8.57723 9.66908 9.54034 9.27728 10.2504 8.57985C10.9606 7.88242 11.3595 6.93651 11.3595 5.95021C11.3595 4.9639 10.9606 4.01799 10.2504 3.32056C9.54034 2.62314 8.57723 2.23133 7.57299 2.23133C6.56875 2.23133 5.60564 2.62314 4.89553 3.32056C4.18543 4.01799 3.78649 4.9639 3.78649 5.95021C3.78649 6.93651 4.18543 7.88242 4.89553 8.57985C5.60564 9.27728 6.56875 9.66908 7.57299 9.66908ZM7.57299 8.18153C8.17553 8.18153 8.7534 7.94645 9.17946 7.52799C9.60553 7.10954 9.84489 6.54199 9.84489 5.95021C9.84489 5.35842 9.60553 4.79087 9.17946 4.37242C8.7534 3.95396 8.17553 3.71888 7.57299 3.71888C6.97044 3.71888 6.39258 3.95396 5.96652 4.37242C5.54045 4.79087 5.30109 5.35842 5.30109 5.95021C5.30109 6.54199 5.54045 7.10954 5.96652 7.52799C6.39258 7.94645 6.97044 8.18153 7.57299 8.18153Z" fill="#B4B4B4"/>
</svg>
