<svg width="24" height="24" viewBox="0 0 24 24" fill="none" xmlns="http://www.w3.org/2000/svg">
<g clip-path="url(#clip0)">
<path d="M15.682 0H8.3148C1.5918 0 -0.00195312 1.59375 -0.00195312 8.31675V15.684C-0.00195312 22.407 1.5918 24.0007 8.3148 24.0007H15.682C22.405 24.0007 23.9988 22.407 23.9988 15.684V8.31675C23.9988 1.59375 22.3893 0 15.682 0ZM19.3735 17.121H17.6313C16.9713 17.121 16.768 16.5975 15.5808 15.3945C14.5495 14.3947 14.0928 14.262 13.8385 14.262C13.4793 14.262 13.3773 14.3633 13.3773 14.856V16.4303C13.3773 16.8525 13.2445 17.106 12.127 17.106C10.279 17.106 8.22855 15.9885 6.7908 13.9065C4.62255 10.8555 4.0293 8.57025 4.0293 8.09775C4.0293 7.8435 4.13055 7.60575 4.6188 7.60575H6.3648C6.80655 7.60575 6.97455 7.809 7.1463 8.2815C8.00955 10.7738 9.4473 12.957 10.0405 12.957C10.2595 12.957 10.3608 12.8558 10.3608 12.297V9.723C10.294 8.53575 9.6693 8.43375 9.6693 8.01225C9.6693 7.809 9.8373 7.60575 10.1065 7.60575H12.8523C13.2235 7.60575 13.36 7.809 13.36 8.24625V11.7188C13.36 12.0938 13.528 12.2265 13.6293 12.2265C13.8483 12.2265 14.0358 12.0938 14.4415 11.6873C15.6955 10.281 16.594 8.11275 16.594 8.11275C16.711 7.8585 16.9143 7.62075 17.356 7.62075H19.102C19.6255 7.62075 19.7425 7.89 19.6255 8.265C19.4065 9.2805 17.2698 12.2963 17.2698 12.2963C17.086 12.6007 17.0155 12.7335 17.2698 13.0732C17.4573 13.3275 18.067 13.8548 18.4728 14.3273C19.219 15.1748 19.7928 15.8857 19.9458 16.3778C20.1175 16.866 19.864 17.1203 19.3713 17.1203L19.3735 17.121Z" fill="#5597D6"/>
</g>
<defs>
<clipPath id="clip0">
<rect width="24" height="24" fill="white"/>
</clipPath>
</defs>
</svg>
